PathFileType	4	(X/Y/Z)	C:/Users/opensim2020/Desktop/walking_exp_matlab/subject06_walking15_straight_01.trc																																																																																																																																											
DataRate	CameraRate	NumFrames	NumMarkers	Units	OrigDataRate	OrigDataStartFrame	OrigNumFrames																																																																																																																																							
100	100	4	47	mm	100	834	232																																																																																																																																							
Frame#	Time	LFHD			RFHD			LBHD			RBHD			C7			T10			CLAV			STRN			RBAK			LSHO			LUPA			LELB			LFRM			LWRA			LWRB			LFIN			RSHO			RUPA			RELB			RFRM			RWRA			RWRB			RFIN			LASI			RASI			LPSI			RPSI			LTHI			LKNE			LTIB			LANK			LHEE			LTOE			RTHI			RKNE			RTIB			RANK			RHEE			RTOE			*39			*40			*41			*42			*43			*44			*45			*46		
		X1	Y1	Z1	X2	Y2	Z2	X3	Y3	Z3	X4	Y4	Z4	X5	Y5	Z5	X6	Y6	Z6	X7	Y7	Z7	X8	Y8	Z8	X9	Y9	Z9	X10	Y10	Z10	X11	Y11	Z11	X12	Y12	Z12	X13	Y13	Z13	X14	Y14	Z14	X15	Y15	Z15	X16	Y16	Z16	X17	Y17	Z17	X18	Y18	Z18	X19	Y19	Z19	X20	Y20	Z20	X21	Y21	Z21	X22	Y22	Z22	X23	Y23	Z23	X24	Y24	Z24	X25	Y25	Z25	X26	Y26	Z26	X27	Y27	Z27	X28	Y28	Z28	X29	Y29	Z29	X30	Y30	Z30	X31	Y31	Z31	X32	Y32	Z32	X33	Y33	Z33	X34	Y34	Z34	X35	Y35	Z35	X36	Y36	Z36	X37	Y37	Z37	X38	Y38	Z38	X39	Y39	Z39	X40	Y40	Z40	X41	Y41	Z41	X42	Y42	Z42	X43	Y43	Z43	X44	Y44	Z44	X45	Y45	Z45	X46	Y46	Z46	X47	Y47	Z47
																																																																																																																																														
59	0.58	-636.55292	1669.51501	1374.7334	-626.30151	1665.38892	1506.13513	-769.99976	1616.86023	1387.3761	-758.04395	1617.59729	1516.41309	-766.78528	1461.9751	1447.54626	-812.62177	1136.17273	1466.93665	-656.02905	1384.14587	1444.90881	-621.67548	1209.51917	1440.12683	-841.42725	1296.55994	1534.62341	-720.32489	1413.28638	1284.63818	-743.08826	1210.90674	1216.69812	-756.7597	1099.2356	1208.70605	-740.31873	949.78357	1185.71069	-678.62646	834.08862	1219.67041	-743.99121	830.26099	1191.50732	-703.99255	748.6673	1184.80237	-697.4494	1419.74902	1606.81104	-734.44788	1225.90295	1702.51379	-720.7464	1106.17041	1721.1499	-680.92889	994.4447	1741.07422	-586.54156	876.15265	1710.21204	-639.70331	863.97455	1749.61462	-584.75848	800.1037	1753.01831	-645.03949	973.04657	1354.52319	-634.48352	981.47894	1570.96387	-801.4455	997.68073	1386.32434	-786.51141	1006.89996	1553.71045	-645.25311	659.63477	1300.3468	-590.57532	506.09378	1323.11414	-728.24646	300.34595	1332.11938	-821.10199	156.49936	1370.33325	-863.31018	161.38226	1417.59412	-713.46136	62.94041	1370.80896	-688.1781	643.02637	1622.3999	-687.18225	517.83405	1594.9801	-750.81793	256.47351	1587.89343	-779.58838	73.17606	1537.05176	-821.85394	49.04053	1493.10388	-630.96381	42.20116	1534.35132	-731.46582	1712.22729	1439.27429	NaN	NaN	NaN	NaN	NaN	NaN	NaN	NaN	NaN	NaN	NaN	NaN	NaN	NaN	NaN	NaN	NaN	NaN	NaN	NaN	NaN
60	0.59	-628.11487	1669.30005	1374.30334	-617.19684	1665.2865	1505.8313	-761.49896	1616.63037	1387.40991	-749.17108	1617.51123	1516.37	-757.97412	1461.81604	1447.74048	-803.95227	1136.15417	1468.4502	-647.42212	1383.9519	1444.87988	-613.03436	1209.44702	1440.43689	-832.1319	1296.61096	1535.64429	-712.4986	1412.78577	1284.8092	-737.60608	1210.69727	1217.00208	-752.31299	1099.09033	1209.25879	-737.60645	949.49298	1186.27161	-677.30011	833.01404	1220.28662	-742.54395	829.98151	1191.95117	-703.62091	747.77765	1185.54834	-688.28925	1420.08215	1606.85559	-725.39441	1226.6488	1703.23425	-710.94147	1107.12952	1722.29358	-668.17566	996.46997	1742.11743	-570.97064	880.97937	1710.39429	-623.52557	867.0412	1749.7782	-567.08441	805.01337	1753.28748	-636.47937	973.45728	1355.61011	-626.15533	981.03558	1571.698	-793.11432	997.57098	1387.48499	-778.45801	1006.53571	1554.91943	-633.26483	661.27264	1299.86011	-577.04205	508.39294	1322.96912	-707.0448	296.67053	1332.22009	-793.2193	148.46332	1370.74194	-835.1842	151.34904	1418.26953	-680.94336	60.35853	1370.51697	-682.47345	642.42255	1622.70435	-682.79559	517.09424	1595.50806	-749.24274	256.37521	1587.93213	-779.52856	73.25346	1536.93201	-821.8866	49.18732	1492.95532	-630.92517	42.14548	1534.30566	-722.78406	1712.11194	1439.09741	NaN	NaN	NaN	NaN	NaN	NaN	NaN	NaN	NaN	NaN	NaN	NaN	NaN	NaN	NaN	NaN	NaN	NaN	NaN	NaN	NaN
61	0.6	-619.62689	1668.91309	1373.86304	-608.43024	1665.05542	1505.39368	-752.97552	1616.2644	1387.40039	-740.41052	1617.31665	1516.46667	-749.06311	1461.48035	1447.89551	-795.3703	1136.06567	1469.86719	-638.71082	1383.66443	1444.84534	-604.42706	1209.15833	1440.72644	-822.98578	1296.63306	1536.67102	-704.63879	1412.08618	1285.02234	-731.93683	1210.28845	1217.31897	-747.56177	1098.86633	1209.68469	-734.66931	949.07281	1186.79004	-675.6842	831.9165	1220.84192	-741.22101	829.73431	1192.59094	-702.83844	746.83252	1186.63452	-679.0451	1420.28333	1606.84802	-716.05963	1227.25281	1703.93945	-700.88538	1108.02063	1723.52832	-655.64392	998.48499	1742.95288	-555.69165	885.79449	1710.44165	-607.67639	870.23547	1749.94641	-549.36218	809.91315	1752.95117	-627.84064	973.66266	1356.62671	-617.95325	980.51331	1572.45459	-784.68384	997.37708	1388.67383	-769.79303	1005.98773	1555.88611	-622.29938	662.86694	1299.46692	-564.06024	510.36316	1322.58643	-685.97375	292.86792	1332.40491	-764.55542	140.49275	1371.4259	-806.40839	141.25771	1419.29321	-647.99829	57.9467	1370.1322	-676.56909	641.61237	1623.14941	-678.30579	516.29413	1595.96997	-747.284	256.16711	1588.0929	-779.24127	73.2873	1536.83972	-821.72815	49.37245	1492.8363	-630.58801	41.8788	1534.23279	-714.12994	1711.80969	1438.88879	NaN	NaN	NaN	NaN	NaN	NaN	NaN	NaN	NaN	NaN	NaN	NaN	NaN	NaN	NaN	NaN	NaN	NaN	NaN	NaN	NaN
62	0.61	-611.07587	1668.38672	1373.38818	-599.76392	1664.71558	1504.83081	-744.40479	1615.7356	1387.297	-731.44843	1616.90234	1516.17505	-740.43787	1461.05688	1448.09045	-786.83978	1135.72986	1471.13293	-629.98883	1383.19934	1444.78638	-595.59241	1208.72778	1441.12439	-813.82837	1296.65063	1537.69958	-696.66162	1411.26648	1285.15027	-725.9646	1209.74744	1217.68213	-742.69525	1098.46387	1210.30652	-731.57758	948.51166	1187.39563	-673.6156	830.78564	1221.28577	-739.35706	829.21576	1193.24402	-702.43994	746.02881	1187.04114	-669.72913	1420.28992	1606.7821	-706.50275	1227.73792	1704.68872	-690.99274	1108.74329	1724.55371	-643.27142	1000.44006	1743.7561	-540.69727	890.46002	1710.45581	-592.04059	873.46814	1750.12781	-531.88989	814.77014	1752.65649	-619.00537	973.56177	1357.62244	-609.68213	979.96478	1573.40869	-775.8299	996.89093	1389.69519	-761.70325	1005.38074	1556.97815	-610.68848	664.16278	1298.30566	-551.65643	511.95807	1321.95862	-664.89581	288.80692	1332.61133	-735.30756	132.57527	1372.29639	-776.36963	131.09091	1420.7561	-614.82977	56.29143	1369.13	-670.44397	640.63715	1623.51172	-673.79126	515.42053	1596.39722	-745.11609	255.85101	1588.22717	-778.81415	73.3114	1536.76135	-821.48895	49.58274	1492.72156	-630.13489	41.57793	1534.1554	-705.47931	1711.33606	1438.5719	NaN	NaN	NaN	NaN	NaN	NaN	NaN	NaN	NaN	NaN	NaN	NaN	NaN	NaN	NaN	NaN	NaN	NaN	NaN	NaN	NaN
